<?xml version="1.0" encoding="utf-8"?>
<!-- Generator: Adobe Illustrator 16.0.0, SVG Export Plug-In . SVG Version: 6.00 Build 0)  -->
<!DOCTYPE svg PUBLIC "-//W3C//DTD SVG 1.1//EN" "http://www.w3.org/Graphics/SVG/1.1/DTD/svg11.dtd">
<svg version="1.1" id="Capa_1" xmlns="http://www.w3.org/2000/svg" xmlns:xlink="http://www.w3.org/1999/xlink" x="0px" y="0px"
	 width="413px" height="333px" viewBox="0 0 413 333" enable-background="new 0 0 413 333" xml:space="preserve">
<path fill="#666666" d="M405.779,101.542c-1.712-8.785-7.003-16.663-14.438-21.634c-3.605-2.405-7.665-4.112-11.916-4.992
	c-5.579-1.147-11.511-0.806-17.164-0.187c-4.385,0.48-8.748,1.264-13.025,2.353c-9.591,2.448-18.903,5.195-28.83,5.776
	c-1.222,0.075-4.934,0.187-6.07,0.224c-1.653,5.483-3.824,10.833-6.257,16.055c-2.475,5.313-4.955,10.636-7.44,15.943
	c-0.538,1.173-1.088,2.342-1.632,3.515c8.39,0.837,16.919,0.901,25.277-0.283c8.017-1.142,15.692-3.654,23.564-5.531
	c1.334-0.32,2.678-0.592,4.027-0.848c1.813-0.336,3.814-0.693,5.563,0.133c2.896,1.355,2.416,4.736,1.323,7.164
	c-1.782,3.958-66.717,143.066-68.567,147.044c-1.744,3.75-3.505,7.446-5.819,10.892c-9.089,13.521-23.827,24.393-39.791,28.078
	c-3.467,0.795-7.238,1.402-10.812,1.136c12.907,14.658,33.24,21.31,52.304,17.144c9.324-2.038,18.018-6.593,25.037-13.052
	c3.355-3.089,6.326-6.604,8.807-10.428c1.194-1.841,2.208-3.787,3.137-5.767c1.834-3.963,77.971-167.19,79.656-170.796
	C405.935,116.562,407.257,109.11,405.779,101.542"/>
<path fill="#666666" d="M294.829,99.136c5.483-11.767,9.644-24.216,9.548-37.332c-0.021-4.038-0.459-8.081-1.387-12.017
	c-3.083-13.138-11.81-23.896-24.019-29.646c-13.276-6.251-28.744-6.39-43.039-4.518c-5.67,0.742-11.233,2.027-16.663,3.814
	c-4.48,1.472-8.854,3.253-13.303,4.795c-11.874,4.112-24.168,5.595-36.716,5.424c-12.081-0.155-23.658-2.144-35.003-6.267
	c-4.398-1.595-8.74-3.318-13.212-4.678c-5.54-1.68-11.226-2.795-16.983-3.408c-13.599-1.424-27.87-0.944-41.122,2.651
	c-4.806,1.307-9.455,3.067-14.124,4.795c-4.44,1.632-8.924,3.179-13.545,4.262c0,0-17.234,38.329-16.927,38.75
	c6.473-0.395,12.914-1.323,19.183-2.998c4.953-1.333,9.743-3.152,14.557-4.934c10.617-3.926,21.333-6.284,32.683-6.742
	c12.879-0.534,25.824,0.528,38.135,4.512c4.955,1.601,9.772,3.595,14.703,5.265c6.713,2.278,13.623,3.792,20.68,4.513
	c13.479,1.376,27.616,0.88,40.746-2.683c10.292-2.8,19.909-7.521,30.39-9.676c10.161-2.091,25.672-4.459,30.633,7.644
	c2.282,5.574,1.056,11.174-1.03,16.477c-4.613-0.246-9.254-0.256-13.899-0.048c-10.129,0.448-20.125,2.497-29.657,5.947
	c-9.249,3.355-18.266,6.651-28.069,7.953c-13.236,1.75-27.25,1.509-40.292-1.44c-8.87-2.005-17.114-5.803-25.776-8.47
	c-12.262-3.761-25.229-4.625-37.993-3.963c-10.791,0.56-21.01,2.913-31.121,6.651c-5.168,1.915-10.313,3.856-15.655,5.222
	c-3.435,0.875-12.972,2.368-12.972,2.368L6.383,128.238c12.097,0.293,24.17-0.821,35.716-4.55
	c8.587-2.779,16.807-6.454,25.677-8.305c12.9-2.71,26.707-2.886,39.74-1.056c9.75,1.365,18.711,4.742,27.92,8.07
	c9.1,3.286,18.647,5.211,28.31,5.691c13.164,0.662,26.44-0.229,39.047-4.23c8.577-2.709,16.765-6.417,25.576-8.336
	c4.522-0.992,9.152-1.632,13.836-2.006c-20.227,43.354-53.875,115.5-55.688,119.399c-4.07,8.727-6.457,18.002-6.531,27.678
	c-0.213,27.129,17.471,52.032,43.146,60.764c5.921,2.017,12.141,3.137,18.392,3.339c-14.082-8.731-23.512-23.874-25.017-40.394
	c-0.885-9.616,0.918-19.223,5.025-27.949C222.267,254.779,292.344,104.454,294.829,99.136"/>
</svg>
